<svg id="Capa_1" data-name="Capa 1" xmlns="http://www.w3.org/2000/svg" viewBox="0 0 512 512"><defs><style>.cls-1{fill:none;}</style></defs><path class="cls-1" d="M306.81,384.5c5,0,7.6-6.1,4-9.3a6.14,6.14,0,0,0-10.2,4.4C300.61,381.9,303.81,384.5,306.81,384.5Z"/><path class="cls-1" d="M294.61,206.7c0,2.5,3.6,5.8,6.3,5.8,5.1,0,7.4-6.3,3.7-10A5.91,5.91,0,0,0,294.61,206.7Z"/><path d="M228,70.63c5.71,4.14,10.52,7.75,10.7,8.05s-1.44,6.07-3.67,12.74c-4.62,14.3-5.46,19.88-3.3,22,2.94,2.94,6.55,1.38,20.73-8.9,5.53-4,10.39-7.45,10.75-7.57s5.59,3.25,11.54,7.63,11.9,8.36,13.22,9c3.3,1.5,6,1.44,7.57-.24,2.1-2.23,1.32-7.15-3.3-21.33-2.17-6.73-4-12.56-3.91-12.92s4.87-4.27,10.88-8.53c14.3-10.34,17.06-13.52,14.42-17.07-2-2.64-4.09-3-20.07-3l-14.84-.06L275,38.84c-4.21-13.1-6.49-18.45-8.77-20.19s-3.67-1.56-6.19,1.08c-1.92,2-2.76,4-6.55,15.45-2.4,7.27-4.57,13.58-4.81,14.06-.42.78-3.06,1-16,1.2-16.52.36-18,.6-19.47,3.3C211.23,57.35,214.17,60.71,228,70.63Z"/><path d="M381.41,206.5a17.54,17.54,0,0,0-5.8-5.1c-1.9-.8-13.6-4-25.8-6.9l-22.4-5.4-2.4-4.8c-3.2-6.3-6.8-8.9-22-15.2-14.8-6.2-26.2-9.9-35.4-11.6-7-1.3-28-1.7-29.8-.6-.7.4,1.7,5.2,6.3,13,18.4,31,27.9,56.2,30,80.6,1.4,14.6-3.1,21.1-16.6,24.6-11.2,2.9-31.8,2.7-41.9-.5a77,77,0,0,1-31.1-17.8l-4.7-4.4-.7,13.8c-.8,16.5-2.3,23.1-7.7,34.1-8.87,18.06-18.69,22.5-38.5,45.3a47.71,47.71,0,0,1-9.72,9c-6.34,4.3-10.3,4.57-15.51,7.31,0,0-10.38,5.45-15.57,15.81-12.36,24.66,88.34,105.08,149.5,115.7,21.77,3.78,31.72-3.19,34-4.9,10.75-8.09,13.13-21.62,13.8-27.5l-9.8.5v-4.9c0-3.2.6-5.6,1.8-6.9,2.1-2.5,34.5-14.7,41.7-15.7,5.7-.8,11.1-3.3,14.1-6.7,3.8-4,13.4-18.8,13.4-20.4,0-.9-2.8-4.6-6.1-8.2-10.1-11-15.5-19.8-17.9-28.7a33.41,33.41,0,0,0-4.2-9.2c-5.8-8.6-21.3-16-38.6-18.5-8.4-1.2-8.4-1.2-12.4-6.3a46.69,46.69,0,0,1-9.8-20.6c-.6-3-1.3-6.2-1.6-7.1-.7-2.5-3.9-3.1-7.1-1.4-9.7,5-15.6,19.8-17,42.4-.6,10.1-.7,10.3-3.7,12.4a90.25,90.25,0,0,0-33.5,45c-2.5,7.4-3.5,11.9-5.6,25.1-.3,2-.8,3.7-1.1,3.7a26.39,26.39,0,0,1-4.5-2.6l-4-2.5.7-5.7q4.5-38.1,32-64.1l9.7-9.2.7-8.2c1.3-13.6,3.9-24.4,7.8-32.2,4.9-9.9,15.1-17.2,22.6-16.2,5.2.7,10.2,5.9,11.1,11.4,1.1,7.3,3.6,14.2,6.8,19s3.4,4.8,10.6,6.1c5.1.9,7.6,1,8,.3s1.5-9.3,2.5-19.3c2.5-26,3.4-27.3,20-30.9,40.7-8.7,64.6-31.5,67.2-64.4C383.71,210.7,383.61,209.6,381.41,206.5Zm-70.6,168.7c3.6,3.2,1,9.3-4,9.3-3,0-6.2-2.6-6.2-4.9A6.14,6.14,0,0,1,310.81,375.2Zm-9.9-162.7c-2.7,0-6.3-3.3-6.3-5.8a5.91,5.91,0,0,1,10-4.2C308.31,206.2,306,212.5,300.91,212.5Z"/><path d="M217.11,264c6.7,2.3,9.8,2.7,19,2.8,11.9,0,22.5-2.1,25.8-5.1,1.8-1.5,1.9-2.7,1.4-11.2-1.1-16.5-7.9-37.2-19.8-60-6.2-11.8-17-29.9-17.9-29.9-.3-.1-2.9,1.3-5.9,2.9-22.6,12.5-32.1,28.8-37.6,64.9l-1.5,9.6,8.7,8.5C199.21,256.2,205.51,260.1,217.11,264Z"/></svg>