<svg id="Capa_1" data-name="Capa 1" xmlns="http://www.w3.org/2000/svg" viewBox="0 0 386 135"><defs><style>.cls-1{fill:none;}</style></defs><path class="cls-1" d="M203.11,55.15a2.67,2.67,0,0,0-1.53,2.61,2.61,2.61,0,0,0,.87,2,3.33,3.33,0,0,0,2.31.78,4.51,4.51,0,0,0,3.45-1.53,6.38,6.38,0,0,0,1.59-4l.06-.66h-1.62A12.59,12.59,0,0,0,203.11,55.15Z"/><path class="cls-1" d="M300.7,44.86a4.92,4.92,0,0,0-4.59,2.37,11.65,11.65,0,0,0-1.41,6,7.67,7.67,0,0,0,1.35,5,5,5,0,0,0,4.11,1.62,4.91,4.91,0,0,0,4.59-2.4,12,12,0,0,0,1.41-6.12,7.43,7.43,0,0,0-1.35-4.89A5.09,5.09,0,0,0,300.7,44.86Z"/><path class="cls-1" d="M355.57,55.15A2.65,2.65,0,0,0,354,57.76a2.58,2.58,0,0,0,.87,2,3.29,3.29,0,0,0,2.3.78,4.55,4.55,0,0,0,3.46-1.53,6.43,6.43,0,0,0,1.58-4l.07-.66H360.7A12.53,12.53,0,0,0,355.57,55.15Z"/><path class="cls-1" d="M168.89,95.35A4.83,4.83,0,0,0,164.1,99c4.23-.19,6.69-1.07,6.69-2.43C170.79,95.8,170.11,95.35,168.89,95.35Z"/><path d="M67.79,6A60.18,60.18,0,0,0,25.24,108.74,60.33,60.33,0,0,0,89,122.55,16.83,16.83,0,0,1,86,117.78,54.83,54.83,0,1,1,112.25,98a17.12,17.12,0,0,1,3.78,4.14A60.19,60.19,0,0,0,67.79,6Z"/><circle cx="101.76" cy="111.4" r="11.54"/><path d="M48.81,98.49a16.26,16.26,0,0,0,8.68,1.73,28,28,0,0,0,5.87-1.1,23.38,23.38,0,0,0,3.17-1.26,4.59,4.59,0,0,1,2.53,0,7.32,7.32,0,0,1,1.27.63,18.37,18.37,0,0,0,3.16,1.27,18,18,0,0,0,2.17.46,17,17,0,0,0,10.49-2.36,17.43,17.43,0,0,0,7.59-10.13c1.52-4.66.58-9.51-2.5-12.46a10.58,10.58,0,0,0-5.73-2.72,13.2,13.2,0,0,0-1.26-5.7,14.54,14.54,0,0,0-6.69-6.42A21.08,21.08,0,0,0,65.9,58c-2.44.16-9.66.62-14.3,6.44a16.74,16.74,0,0,0-3.42,8.12,12.93,12.93,0,0,0-7,5.69c-3.22,5.8,0,12,.63,13.29A16.36,16.36,0,0,0,48.81,98.49Z"/><ellipse cx="38.37" cy="58.94" rx="8.54" ry="10.44"/><path d="M57.35,52.93c4.72,0,8.55-4.68,8.55-10.44s-3.83-10.44-8.55-10.44-8.54,4.67-8.54,10.44S52.63,52.93,57.35,52.93Z"/><ellipse cx="78.87" cy="42.49" rx="8.54" ry="10.44"/><ellipse cx="97.22" cy="58.94" rx="8.54" ry="10.44"/><path d="M183.49,66.25a5.81,5.81,0,0,0,1.59-3.63l2.58-32.46a5,5,0,0,0-1.11-4,4.6,4.6,0,0,0-3.63-1.53,5.17,5.17,0,0,0-2.94.93,9.06,9.06,0,0,0-2.52,2.73l-12.6,20.28-9.18-20.34q-1.62-3.6-4.92-3.6a5.33,5.33,0,0,0-3.84,1.5,6,6,0,0,0-1.8,3.9l-2.58,32.64a4.52,4.52,0,0,0,1.05,3.6,4.33,4.33,0,0,0,3.33,1.32,5.08,5.08,0,0,0,3.66-1.38,5.17,5.17,0,0,0,1.56-3.6l1.38-16.92,5.82,12a7.44,7.44,0,0,0,2,2.76,4.17,4.17,0,0,0,2.64.84,4.69,4.69,0,0,0,2.76-.84,9.41,9.41,0,0,0,2.4-2.76L176.86,45l-1.38,17.64a4.24,4.24,0,0,0,1.05,3.57,4.47,4.47,0,0,0,3.39,1.35A4.83,4.83,0,0,0,183.49,66.25Z"/><path d="M217.66,66.31a5.19,5.19,0,0,0,1.62-3.63l1-11.88q.06-.72.06-2,0-5.94-3.33-8.88T206.92,37a22.4,22.4,0,0,0-11,2.46A5,5,0,0,0,194,41.23a4.1,4.1,0,0,0-.63,2.13,3.39,3.39,0,0,0,1,2.4,3.23,3.23,0,0,0,2.46,1,5.32,5.32,0,0,0,2-.42,21.5,21.5,0,0,1,6.72-1.56q5,0,4.74,4.26l-.06.42h-2.16a39.64,39.64,0,0,0-9.72,1,9.86,9.86,0,0,0-5.34,3A8.45,8.45,0,0,0,191.32,59a7.84,7.84,0,0,0,1.35,4.47,9.14,9.14,0,0,0,3.72,3.15,12,12,0,0,0,5.25,1.14,9.37,9.37,0,0,0,4.56-1.08,7.52,7.52,0,0,0,3.06-3.06,4.08,4.08,0,0,0,1.38,2.91,4.72,4.72,0,0,0,3.24,1.11A5.45,5.45,0,0,0,217.66,66.31ZM209.8,55.06a6.38,6.38,0,0,1-1.59,4,4.51,4.51,0,0,1-3.45,1.53,3.33,3.33,0,0,1-2.31-.78,2.61,2.61,0,0,1-.87-2,2.67,2.67,0,0,1,1.53-2.61,12.59,12.59,0,0,1,5.13-.75h1.62Z"/><path d="M235.87,44.83a7.12,7.12,0,0,1,2.85-.45,16,16,0,0,1,7.14,1.68,3.85,3.85,0,0,0,1.74.42,2.9,2.9,0,0,0,2.31-1.11,3.94,3.94,0,0,0,.93-2.61,4.46,4.46,0,0,0-.63-2.28,4.57,4.57,0,0,0-1.89-1.74,21.78,21.78,0,0,0-4.2-1.23,22.72,22.72,0,0,0-4.44-.51,21.09,21.09,0,0,0-7.41,1.2,11.22,11.22,0,0,0-5,3.36,7.92,7.92,0,0,0-1.8,4.92,7,7,0,0,0,1.5,4.8A9.65,9.65,0,0,0,230.74,54a45.93,45.93,0,0,0,5.46,1.8,32.36,32.36,0,0,1,3.9,1.32q1.2.54,1.2,1.5a1.35,1.35,0,0,1-.93,1.26,6.7,6.7,0,0,1-2.67.42,20.16,20.16,0,0,1-4.47-.54,21.17,21.17,0,0,1-4.29-1.44,4.48,4.48,0,0,0-2-.54A3.13,3.13,0,0,0,224.47,59a4.1,4.1,0,0,0-1,2.73,4.16,4.16,0,0,0,.75,2.37,5.1,5.1,0,0,0,2.25,1.77,27.54,27.54,0,0,0,10.26,1.86q6.72,0,10.35-2.55a8.2,8.2,0,0,0,3.63-7.11,6.69,6.69,0,0,0-1.59-4.65,10.39,10.39,0,0,0-3.72-2.67,45.12,45.12,0,0,0-5.37-1.8,23.58,23.58,0,0,1-3.93-1.32q-1.23-.6-1.23-1.56Q234.88,45.28,235.87,44.83Z"/><path d="M280.72,39a16.38,16.38,0,0,0-4.14-1.44,25,25,0,0,0-5.34-.54,20,20,0,0,0-9.09,2,13.72,13.72,0,0,0-5.94,5.64,17.43,17.43,0,0,0-2.07,8.67,14.22,14.22,0,0,0,2,7.65,13.25,13.25,0,0,0,5.67,5,19.33,19.33,0,0,0,8.52,1.77,20.46,20.46,0,0,0,4.74-.57,16.59,16.59,0,0,0,4-1.41,4.26,4.26,0,0,0,1.71-1.83,5.62,5.62,0,0,0,.57-2.43,3.91,3.91,0,0,0-.75-2.43,2.47,2.47,0,0,0-2.07-1,4.12,4.12,0,0,0-1.86.48,17.56,17.56,0,0,1-2.76.87,13.57,13.57,0,0,1-2.82.27,5.5,5.5,0,0,1-4.38-1.77A7.09,7.09,0,0,1,265.12,53a8.84,8.84,0,0,1,1.77-5.91,6.22,6.22,0,0,1,5-2.07,14.29,14.29,0,0,1,5.76,1.32,3.67,3.67,0,0,0,1.68.42,2.83,2.83,0,0,0,2.37-1.29,5,5,0,0,0,.93-3,4.5,4.5,0,0,0-.48-2A3.59,3.59,0,0,0,280.72,39Z"/><path d="M309.1,38.8a19.26,19.26,0,0,0-8.58-1.8,18.4,18.4,0,0,0-8.61,1.92,13.69,13.69,0,0,0-5.73,5.55,17.3,17.3,0,0,0-2,8.61,14.8,14.8,0,0,0,2,7.71,13.13,13.13,0,0,0,5.64,5.13,19.23,19.23,0,0,0,8.58,1.8A18.4,18.4,0,0,0,309,65.8a13.69,13.69,0,0,0,5.73-5.55,17.43,17.43,0,0,0,2-8.67,14.64,14.64,0,0,0-2-7.68A13.19,13.19,0,0,0,309.1,38.8Zm-4.35,18.66a4.91,4.91,0,0,1-4.59,2.4,5,5,0,0,1-4.11-1.62,7.67,7.67,0,0,1-1.35-5,11.65,11.65,0,0,1,1.41-6,4.92,4.92,0,0,1,4.59-2.37,5.09,5.09,0,0,1,4.11,1.59,7.43,7.43,0,0,1,1.35,4.89A12,12,0,0,1,304.75,57.46Z"/><path d="M335,45.58h3.23a6,6,0,0,0,3.87-1,3.9,3.9,0,0,0,1.24-3.18,3.33,3.33,0,0,0-1.17-2.7,5,5,0,0,0-3.27-1h-3.25l.31-4a4.38,4.38,0,0,0-1.15-3.6,5.08,5.08,0,0,0-3.78-1.32,6,6,0,0,0-4,1.32,5.09,5.09,0,0,0-1.75,3.66l-.29,3.9h-1.75q-5.21,0-5.21,4.14a3.3,3.3,0,0,0,1.2,2.76,5.24,5.24,0,0,0,3.35,1h1.74l-.78,9.66c0,.4-.05,1-.05,1.8,0,3.48,1,6.13,2.94,7.95s4.8,2.73,8.52,2.73q4.07,0,5.73-1a3.88,3.88,0,0,0,1.64-3.6,3.79,3.79,0,0,0-.66-2.34,2,2,0,0,0-1.67-.9,12.67,12.67,0,0,0-1.33.12l-1.19.06q-3.32,0-3.31-3.78a5.91,5.91,0,0,1,.07-1Z"/><path d="M369.42,39.94c-2.21-2-5.57-2.94-10-2.94a22.41,22.41,0,0,0-11,2.46,4.94,4.94,0,0,0-1.94,1.77,4.1,4.1,0,0,0-.63,2.13,3.35,3.35,0,0,0,1,2.4,3.2,3.2,0,0,0,2.46,1,5.36,5.36,0,0,0,2-.42A21.44,21.44,0,0,1,358,44.8q5,0,4.74,4.26l-.07.42h-2.16a39.64,39.64,0,0,0-9.72,1,9.79,9.79,0,0,0-5.33,3A8.39,8.39,0,0,0,343.78,59a7.83,7.83,0,0,0,1.34,4.47,9.21,9.21,0,0,0,3.72,3.15,12,12,0,0,0,5.25,1.14,9.44,9.44,0,0,0,4.57-1.08,7.49,7.49,0,0,0,3-3.06,4.08,4.08,0,0,0,1.38,2.91,4.72,4.72,0,0,0,3.24,1.11,5.48,5.48,0,0,0,3.79-1.29,5.19,5.19,0,0,0,1.62-3.63l1-11.88c0-.48.05-1.14.05-2Q372.75,42.88,369.42,39.94Zm-7.17,15.12a6.43,6.43,0,0,1-1.58,4,4.55,4.55,0,0,1-3.46,1.53,3.29,3.29,0,0,1-2.3-.78,2.58,2.58,0,0,1-.87-2,2.65,2.65,0,0,1,1.53-2.61,12.53,12.53,0,0,1,5.13-.75h1.62Z"/><polygon points="144.81 90.31 141.78 107.54 145.67 107.54 147.03 99.79 154.77 99.79 155.4 96.2 147.66 96.2 148.7 90.31 159.07 90.31 159.71 86.74 145.44 86.74 144.81 90.31"/><path d="M169.59,91.72c-5.68,0-9.47,3.92-9.47,9.83,0,4,2.54,6.28,6.84,6.28a12,12,0,0,0,6-1.52l-1-3.48a10.3,10.3,0,0,1-4.57,1.24c-1.92,0-3.18-.84-3.5-2.28,7.08-.19,10.83-1.86,10.83-5.53C174.71,93.4,172.8,91.72,169.59,91.72ZM164.1,99a4.83,4.83,0,0,1,4.79-3.65c1.22,0,1.9.45,1.9,1.22C170.79,97.93,168.33,98.81,164.1,99Z"/><path d="M187.76,104.07c-1.79,0-2.73-.68-2.71-2a15.77,15.77,0,0,1,.7-3.54l2-7.21c1.09-3.95-.71-6-4.68-6a19.83,19.83,0,0,0-4.34.41l.6,3.69a11.89,11.89,0,0,1,2.83-.33c1.29,0,1.95.8,1.55,2.28l-1.95,7.21a16.49,16.49,0,0,0-.73,4c0,3.56,2,5.32,5.9,5.32a11.22,11.22,0,0,0,4.76-1.08l-1-3.49A5.5,5.5,0,0,1,187.76,104.07Z"/><path d="M205,104.07c-1.29,0-1.93-.58-1.86-1.7.13-1.88,1-3.27,1.44-5.19.88-3.6-.84-5.46-5.13-5.46a12.37,12.37,0,0,0-3.46.41l.31,3.69a10.26,10.26,0,0,1,2.68-.34c1.31,0,1.85.59,1.55,1.7-.42,1.71-1.34,3.68-1.48,5.76-.2,3.21,1.63,4.89,5.38,4.89a8,8,0,0,0,4.18-1.23l-1-3.34A4.54,4.54,0,0,1,205,104.07Z"/><circle cx="204.29" cy="87.38" r="2.53"/><polygon points="226.88 92.01 214.93 92.01 214.28 95.66 221.71 95.66 212.53 103.44 212.84 107.54 224.96 107.54 225.61 103.89 217.14 103.89 227.21 95.66 226.88 92.01"/></svg>