<svg id="Capa_1" data-name="Capa 1" xmlns="http://www.w3.org/2000/svg" viewBox="0 0 256 256"><path d="M213.09,43.88A119.78,119.78,0,1,0,43.7,213.28a120.07,120.07,0,0,0,126.8,27.5,34,34,0,0,1-5.85-9.5A109.09,109.09,0,1,1,216.89,192a34.09,34.09,0,0,1,7.51,8.24A119.81,119.81,0,0,0,213.09,43.88Z"/><circle cx="196" cy="218.59" r="22.96" transform="translate(-20.59 20.38) rotate(-5.66)"/><path d="M90.61,192.89a32.37,32.37,0,0,0,17.27,3.44,56.75,56.75,0,0,0,11.7-2.18,47.82,47.82,0,0,0,6.3-2.52,9.06,9.06,0,0,1,5,0,15.51,15.51,0,0,1,2.52,1.26,37.81,37.81,0,0,0,6.3,2.52,36.16,36.16,0,0,0,4.32.92,33.87,33.87,0,0,0,20.87-4.7A34.76,34.76,0,0,0,180,171.48c3-9.29,1.15-18.94-5-24.81a21.14,21.14,0,0,0-11.41-5.42,25.89,25.89,0,0,0-2.52-11.34c-3.56-7.4-9.75-10.82-13.3-12.78a42,42,0,0,0-23.22-4.85c-4.86.31-19.22,1.24-28.46,12.82a33.4,33.4,0,0,0-6.81,16.15c-2.57.92-9.73,3.88-13.86,11.33-6.4,11.55,0,24,1.26,26.45A32.61,32.61,0,0,0,90.61,192.89Z"/><ellipse cx="69.83" cy="114.17" rx="17" ry="20.78"/><ellipse cx="107.61" cy="81.42" rx="17" ry="20.78"/><ellipse cx="150.44" cy="81.42" rx="17" ry="20.78"/><ellipse cx="186.96" cy="114.17" rx="17" ry="20.78"/></svg>